<?xml version="1.0" standalone="no"?>
<!DOCTYPE svg PUBLIC "-//W3C//DTD SVG 20010904//EN"
 "http://www.w3.org/TR/2001/REC-SVG-20010904/DTD/svg10.dtd">
<svg version="1.0" xmlns="http://www.w3.org/2000/svg"
 width="862.000000pt" height="862.000000pt" viewBox="0 0 862.000000 862.000000"
 preserveAspectRatio="xMidYMid meet">

<g transform="translate(0.000000,862.000000) scale(0.100000,-0.100000)"
fill="#000000" stroke="none">
<path d="M4522 3909 c-131 -300 -192 -443 -192 -451 0 -4 22 -8 49 -8 l48 0
20 53 20 52 89 0 88 0 21 -52 20 -53 57 0 c32 0 58 3 58 6 0 7 -216 508 -230
533 -4 8 -21 -20 -48 -80z m58 -195 c29 -68 27 -74 -25 -74 -25 0 -45 3 -45 7
0 11 43 113 47 113 2 0 13 -21 23 -46z"/>
<path d="M2445 3966 c-69 -30 -108 -112 -86 -179 16 -47 54 -81 133 -116 86
-38 107 -72 68 -111 -26 -26 -91 -26 -148 0 l-43 19 -19 -32 c-11 -18 -19 -36
-17 -41 7 -23 85 -51 149 -54 84 -5 130 10 168 56 25 31 30 45 30 91 0 72 -25
110 -94 144 -30 15 -58 27 -61 27 -21 0 -65 44 -65 65 0 52 72 70 148 35 l42
-19 20 38 c23 45 18 52 -50 76 -52 18 -134 19 -175 1z"/>
<path d="M3360 3715 l0 -265 50 0 50 0 0 85 0 85 62 0 c115 0 182 55 195 158
7 64 -10 114 -52 151 -46 40 -91 51 -207 51 l-98 0 0 -265z m220 155 c26 -14
42 -65 29 -97 -15 -39 -38 -52 -96 -53 l-53 0 0 80 0 80 51 0 c28 0 59 -4 69
-10z"/>
<path d="M5450 3715 l0 -265 50 0 49 0 3 83 3 82 35 3 c34 2 37 0 90 -83 l55
-85 58 0 c31 0 57 3 57 6 0 3 -20 36 -44 73 -72 112 -71 109 -43 140 39 41 50
72 50 131 0 130 -73 180 -265 180 l-98 0 0 -265z m235 140 c33 -32 33 -78 0
-111 -22 -21 -33 -25 -78 -22 l-52 3 -3 64 c-4 87 -2 91 58 91 41 0 56 -5 75
-25z"/>
<path d="M6510 3715 l0 -265 55 0 54 0 3 107 c2 70 7 108 15 110 6 2 47 -46
90 -106 l78 -111 63 0 c34 0 62 3 62 6 0 3 -48 69 -106 146 l-106 140 34 37
c19 20 67 72 108 116 l75 80 -65 3 c-73 4 -52 19 -187 -133 l-63 -70 0 103 0
102 -55 0 -55 0 0 -265z"/>
<path d="M7651 3958 c-57 -30 -84 -77 -78 -138 6 -68 31 -99 113 -137 84 -38
104 -55 104 -88 0 -53 -80 -71 -159 -35 -24 11 -45 19 -46 18 -1 -2 -11 -19
-23 -40 l-22 -36 47 -23 c69 -34 176 -38 232 -10 53 28 81 72 81 132 0 68 -30
107 -116 149 -88 43 -104 56 -104 86 0 53 84 68 159 29 27 -13 28 -13 44 21
10 19 17 38 17 42 0 18 -79 45 -140 49 -54 4 -72 1 -109 -19z"/>
</g>
</svg>
