<?xml version="1.0" standalone="no"?>
<!DOCTYPE svg PUBLIC "-//W3C//DTD SVG 20010904//EN"
 "http://www.w3.org/TR/2001/REC-SVG-20010904/DTD/svg10.dtd">
<svg version="1.0" xmlns="http://www.w3.org/2000/svg"
 width="1146.000000pt" height="1146.000000pt" viewBox="0 0 1146.000000 1146.000000"
 preserveAspectRatio="xMidYMid meet">

<g transform="translate(0.000000,1146.000000) scale(0.100000,-0.100000)"
fill="#000000" stroke="none">
<path d="M5105 3853 c-38 -87 -101 -234 -142 -326 -40 -93 -73 -170 -73 -173
0 -2 27 -4 60 -4 l61 0 26 60 26 61 105 -3 106 -3 22 -55 22 -55 71 -3 c39 -2
71 1 71 6 0 5 -27 72 -61 148 -33 76 -95 218 -136 314 -41 96 -78 178 -82 183
-4 4 -38 -64 -76 -150z m96 -200 l26 -68 -54 -3 c-31 -2 -57 -1 -59 1 -5 5 48
137 55 137 4 0 18 -30 32 -67z"/>
<path d="M2655 3977 c-59 -20 -88 -42 -113 -86 -31 -54 -29 -122 3 -178 22
-37 39 -49 120 -88 100 -47 131 -78 121 -118 -13 -54 -109 -66 -195 -24 l-51
24 -26 -44 c-31 -53 -25 -64 49 -91 81 -31 148 -36 210 -18 68 20 104 48 128
100 24 52 24 100 0 152 -22 49 -63 81 -151 118 -80 34 -100 51 -100 86 0 60
81 78 181 41 l50 -20 20 46 c10 24 19 47 19 49 0 3 -24 16 -52 29 -66 30 -159
39 -213 22z"/>
<path d="M8935 3981 c-91 -24 -137 -75 -143 -161 -7 -101 31 -152 150 -200
105 -43 139 -90 94 -135 -34 -34 -111 -34 -178 -1 -52 25 -54 24 -82 -31 -22
-44 -21 -46 27 -70 189 -92 387 -16 387 147 0 86 -51 146 -160 189 -73 29
-110 61 -110 95 0 55 95 74 179 36 23 -11 46 -18 50 -15 4 2 16 22 26 45 16
35 16 43 4 54 -40 37 -180 64 -244 47z"/>
<path d="M3730 3665 l0 -315 60 0 60 0 0 99 0 99 90 4 c80 4 95 8 132 34 110
77 120 262 19 347 -46 38 -90 47 -233 47 l-128 0 0 -315z m280 171 c15 -17 23
-38 24 -66 1 -35 -4 -47 -32 -71 -30 -27 -39 -30 -90 -27 l-57 3 -3 93 -3 92
69 0 c60 0 71 -3 92 -24z"/>
<path d="M6240 3665 l0 -315 65 0 65 0 0 100 0 100 40 0 c39 0 41 -1 106 -100
l67 -100 74 0 c57 0 72 3 67 13 -5 6 -36 56 -71 110 -35 54 -63 99 -63 101 0
2 15 19 33 38 83 88 75 254 -15 321 -53 39 -93 47 -234 47 l-134 0 0 -315z
m285 170 c34 -33 34 -93 1 -131 -20 -24 -32 -28 -90 -32 l-66 -4 0 96 0 96 65
0 c57 0 69 -3 90 -25z"/>
<path d="M7520 3665 l0 -315 65 0 65 0 0 124 c0 175 4 176 120 15 51 -72 99
-133 105 -135 7 -3 44 -4 83 -2 l71 3 -130 173 -131 173 114 122 c62 67 119
128 126 135 6 7 12 15 12 18 0 2 -35 4 -79 4 l-78 0 -107 -120 -106 -121 0
121 0 120 -65 0 -65 0 0 -315z"/>
<path d="M3905 2534 l0 -186 95 4 c108 5 145 20 186 74 21 27 29 50 32 95 5
71 -8 109 -54 149 -43 37 -90 50 -184 50 l-75 0 0 -186z m161 157 c54 -24 84
-75 91 -150 10 -106 -27 -164 -113 -177 -72 -11 -74 -6 -74 182 l0 164 28 0
c15 0 45 -9 68 -19z"/>
<path d="M5649 2705 c-37 -20 -51 -63 -36 -111 9 -31 9 -38 -3 -42 -8 -3 -27
-18 -42 -33 -62 -62 -18 -169 70 -169 31 0 47 7 73 31 27 25 37 29 49 20 86
-63 108 -65 161 -12 46 46 53 95 18 127 l-21 19 28 6 c16 4 -16 6 -71 6 -58 0
-75 -2 -40 -4 41 -3 64 -9 73 -20 14 -20 16 -111 2 -133 -14 -23 -70 11 -141
88 -103 110 -136 177 -104 212 28 31 68 25 104 -15 l31 -36 0 30 c0 20 -7 34
-19 41 -28 14 -101 12 -132 -5z m-9 -163 c0 -4 21 -31 47 -61 36 -41 44 -57
37 -69 -15 -24 -57 -34 -88 -22 -32 12 -60 71 -50 103 11 37 54 76 54 49z"/>
<path d="M6105 2536 l0 -186 75 0 c91 0 140 13 180 47 44 36 60 74 60 139 0
72 -28 123 -84 155 -33 19 -60 24 -136 27 l-95 4 0 -186z m165 152 c60 -31 90
-88 90 -174 0 -47 -5 -69 -23 -95 -27 -41 -95 -67 -136 -53 l-26 9 -3 168 -2
167 28 0 c15 0 48 -10 72 -22z"/>
<path d="M4740 2695 c-6 -8 -9 -23 -5 -35 10 -31 59 -24 63 9 6 37 -34 55 -58
26z"/>
<path d="M6481 2691 c-16 -30 -3 -53 28 -49 22 2 26 8 26 33 0 23 -5 31 -22
33 -14 2 -26 -4 -32 -17z"/>
<path d="M6910 2690 c-14 -27 4 -52 34 -48 31 4 30 62 -1 66 -14 2 -26 -4 -33
-18z"/>
<path d="M4572 2647 c-36 -37 -39 -47 -17 -47 12 0 15 -18 15 -106 0 -58 5
-114 10 -125 15 -27 63 -25 97 6 l28 25 -29 -12 c-44 -19 -56 6 -56 119 l0 93
41 0 c26 0 38 4 34 11 -4 6 -21 9 -38 7 -30 -3 -32 0 -35 30 -2 17 -7 32 -11
32 -4 0 -21 -15 -39 -33z"/>
<path d="M5342 2640 c-18 -11 -44 -20 -58 -20 -14 0 -38 -7 -54 -15 -59 -31
-77 -91 -40 -138 17 -22 18 -26 5 -37 -18 -15 -20 -51 -3 -68 9 -9 5 -17 -15
-36 -18 -16 -27 -35 -27 -54 0 -101 199 -70 256 40 14 26 14 32 0 53 -13 19
-27 24 -94 30 -43 4 -85 10 -92 15 -24 15 0 28 43 24 l42 -5 -31 14 c-66 31
-73 167 -9 167 47 0 88 -123 53 -158 -8 -8 -9 -12 -1 -12 20 0 63 61 63 90 0
16 -11 42 -25 58 -28 33 -24 45 12 31 28 -10 67 5 60 24 -6 20 -50 19 -85 -3z
m-3 -300 c39 0 54 -14 46 -40 -7 -23 -75 -59 -112 -60 -64 0 -102 52 -67 91
16 17 27 20 63 15 24 -3 56 -6 70 -6z"/>
<path d="M7512 2640 c-18 -11 -45 -20 -61 -20 -44 0 -94 -40 -105 -83 -8 -32
-6 -42 14 -68 20 -29 21 -33 6 -41 -19 -10 -21 -49 -4 -66 9 -9 5 -18 -15 -38
-39 -39 -36 -79 10 -103 87 -45 271 76 224 149 -7 9 -41 18 -98 25 -70 8 -88
14 -91 28 -3 14 2 16 27 11 99 -20 175 91 106 156 -29 28 -24 43 11 30 29 -11
68 4 61 23 -6 20 -50 19 -85 -3z m-57 -36 c37 -15 61 -124 33 -152 -48 -48
-124 72 -84 133 17 26 24 29 51 19z m98 -274 c19 -17 -6 -53 -50 -72 -56 -25
-106 -18 -129 17 -15 23 -15 27 0 50 16 25 19 26 94 19 42 -3 81 -10 85 -14z"/>
<path d="M4345 2607 c-17 -8 -36 -22 -44 -31 -12 -14 -7 -14 27 4 37 19 46 21
72 10 28 -12 47 -41 36 -58 -3 -5 -33 -17 -66 -27 -71 -21 -115 -63 -104 -99
19 -64 83 -76 133 -25 17 17 32 36 32 42 1 7 5 -6 8 -28 6 -37 9 -40 40 -43
29 -3 33 -1 25 15 -4 10 -10 62 -13 115 -4 71 -10 102 -22 113 -22 22 -87 28
-124 12z m78 -164 c-22 -45 -42 -58 -75 -50 -61 16 -41 77 34 105 52 20 53 20
56 1 2 -11 -5 -36 -15 -56z"/>
<path d="M4752 2602 c-24 -13 -29 -21 -21 -29 7 -7 10 -48 7 -117 l-3 -106 44
0 c35 0 42 3 33 12 -8 8 -12 53 -12 135 0 68 -3 123 -7 123 -5 -1 -23 -9 -41
-18z"/>
<path d="M4882 2605 c-28 -13 -32 -17 -22 -34 13 -25 13 -188 0 -196 -23 -14
-7 -25 36 -25 40 0 45 2 38 18 -5 9 -9 58 -9 107 l0 90 38 18 c35 18 39 18 63
2 25 -16 26 -18 22 -126 l-3 -109 43 0 c40 0 54 11 32 25 -5 3 -10 45 -10 93
0 104 -12 134 -60 146 -32 8 -64 -1 -122 -32 -3 -2 -8 6 -10 17 -3 18 -5 19
-36 6z"/>
<path d="M6502 2606 c-23 -12 -24 -18 -25 -134 l-2 -122 43 0 c40 0 54 11 32
25 -6 4 -10 57 -10 126 0 65 -3 119 -7 119 -5 -1 -19 -7 -31 -14z"/>
<path d="M6621 2604 c-26 -11 -32 -17 -23 -26 15 -15 16 -194 2 -203 -23 -14
-7 -25 36 -25 40 0 45 2 38 18 -5 9 -10 56 -12 104 -3 82 -2 87 20 101 41 27
64 29 89 8 22 -17 24 -27 24 -103 0 -45 -4 -93 -8 -105 -8 -22 -6 -23 37 -23
43 0 59 11 36 25 -6 3 -10 49 -10 101 0 87 -2 97 -25 119 -30 30 -67 32 -120
5 -47 -24 -43 -24 -47 -1 -3 18 -5 19 -37 5z"/>
<path d="M6932 2606 c-23 -12 -24 -18 -25 -134 l-2 -122 43 0 c40 0 54 11 32
25 -6 4 -10 57 -10 126 0 65 -3 119 -7 119 -5 -1 -19 -7 -31 -14z"/>
<path d="M7051 2604 c-26 -11 -32 -17 -23 -26 15 -15 16 -194 2 -203 -23 -14
-7 -25 36 -25 36 0 45 3 41 14 -5 12 -10 149 -8 194 1 7 17 20 37 28 70 29
102 -22 92 -144 -3 -31 -9 -65 -13 -74 -6 -16 -1 -18 39 -18 43 0 59 11 36 25
-6 3 -10 49 -10 101 0 87 -2 97 -25 119 -30 30 -67 32 -118 5 -44 -24 -48 -24
-41 -6 8 22 -8 25 -45 10z"/>
</g>
</svg>
